<?xml version="1.0" standalone="no"?>
<!DOCTYPE svg PUBLIC "-//W3C//DTD SVG 20010904//EN"
 "http://www.w3.org/TR/2001/REC-SVG-20010904/DTD/svg10.dtd">
<svg version="1.0" xmlns="http://www.w3.org/2000/svg"
 width="460.000000pt" height="460.000000pt" viewBox="0 0 460.000000 460.000000"
 preserveAspectRatio="xMidYMid meet">
<metadata>
Created by potrace 1.11, written by Peter Selinger 2001-2013
</metadata>
<g transform="translate(0.000000,460.000000) scale(0.100000,-0.100000)"
fill="#000000" stroke="none">
<path d="M2265 4514 c-25 -23 -27 -24 -22 -5 3 12 0 21 -6 21 -15 0 -77 -43
-77 -53 0 -5 -4 -5 -10 -2 -5 3 -10 1 -10 -6 0 -6 -8 -9 -19 -6 -20 5 -36 -16
-32 -41 1 -6 -3 -20 -8 -30 -7 -12 -10 -13 -11 -3 0 18 -40 -27 -40 -45 0 -7
-6 -11 -14 -8 -10 4 -12 14 -6 37 8 36 31 77 42 77 5 0 8 7 8 15 0 8 -4 15
-10 15 -16 0 -12 22 8 36 9 8 12 14 5 14 -7 0 -26 -15 -43 -32 -25 -26 -29
-28 -20 -10 6 13 9 26 6 30 -10 10 -50 10 -68 1 -11 -6 -18 -5 -21 4 -2 8 -17
2 -43 -18 -21 -16 -41 -32 -44 -35 -3 -3 -15 -7 -28 -7 -13 -1 -41 -18 -64
-38 -22 -20 -42 -35 -44 -32 -3 2 3 23 12 46 20 50 12 63 -16 30 l-20 -24 6
28 c4 17 2 27 -5 27 -6 0 -10 -3 -9 -7 2 -5 -7 -18 -19 -30 -12 -12 -23 -17
-25 -12 -4 13 -127 -111 -150 -152 -11 -19 -16 -25 -13 -14 4 11 11 33 16 48
4 16 13 35 20 43 17 21 6 26 -19 8 -12 -8 -19 -20 -16 -26 4 -7 2 -8 -4 -4 -7
4 -18 -6 -28 -27 -9 -18 -26 -39 -38 -47 -20 -12 -20 -12 -6 6 8 10 21 25 28
32 17 19 15 37 -3 22 -9 -8 -15 -8 -15 -2 0 6 9 13 19 17 11 3 23 15 26 26 4
10 14 19 23 19 10 0 27 7 39 15 20 14 22 13 25 -2 3 -14 8 -11 23 14 10 17 29
34 42 38 37 9 16 28 -23 20 -37 -6 -46 7 -16 24 23 14 6 14 -19 0 -11 -5 -17
-14 -14 -20 4 -5 -6 -9 -21 -9 -15 0 -36 -8 -47 -17 -19 -17 -20 -17 -14 0 14
37 -29 9 -101 -65 -55 -57 -105 -135 -96 -150 5 -7 2 -9 -9 -5 -10 4 -20 0
-26 -11 -6 -9 -11 -12 -11 -6 0 6 11 24 25 40 14 16 25 35 25 43 0 8 20 38 45
67 32 37 45 61 44 81 l-1 28 -8 -26 c-9 -31 -50 -89 -62 -89 -4 0 -8 7 -8 15
0 9 -6 12 -16 8 -13 -5 -15 -16 -12 -54 4 -40 2 -48 -14 -52 -15 -4 -17 -3 -8
8 6 8 10 24 8 37 -3 22 -4 22 -21 -7 -10 -16 -16 -21 -12 -10 4 15 -1 12 -18
-9 -23 -28 -25 -29 -35 -10 -6 10 -12 14 -12 8 0 -5 5 -15 11 -21 9 -9 6 -19
-12 -42 -24 -29 -49 -40 -49 -21 0 6 4 10 9 10 5 0 16 11 24 24 14 21 15 26 1
37 -12 10 -23 3 -63 -41 -34 -36 -47 -59 -45 -74 3 -15 2 -16 -3 -6 -11 20
-43 25 -43 6 0 -9 -10 -20 -21 -27 -25 -13 -20 1 14 39 21 23 44 31 31 10 -4
-7 -3 -8 4 -4 6 4 8 14 5 23 -4 11 -3 14 5 9 8 -5 10 -2 6 8 -5 12 -17 7 -58
-27 -33 -26 -49 -45 -42 -49 6 -4 7 -8 2 -8 -5 0 -3 -7 4 -15 10 -13 11 -18 1
-28 -10 -9 -11 -8 -5 8 6 16 5 18 -7 8 -7 -7 -20 -13 -29 -13 -12 1 -12 3 3
11 9 6 15 15 11 21 -4 6 -9 6 -13 1 -3 -5 -34 -28 -68 -52 -35 -23 -63 -47
-63 -53 0 -6 10 -2 22 9 45 40 52 35 10 -8 -49 -52 -55 -69 -13 -40 33 24 49
28 29 8 -25 -25 -62 -41 -66 -28 -2 6 -7 9 -12 6 -4 -3 -13 2 -20 10 -10 13
-9 19 5 35 10 11 16 23 12 26 -3 3 -10 -3 -16 -14 -6 -11 -17 -27 -23 -34 -7
-8 -18 -23 -24 -33 -6 -11 -29 -27 -50 -34 -21 -8 -43 -21 -47 -28 -4 -7 -19
-25 -33 -40 -13 -14 -24 -32 -24 -41 0 -8 -6 -12 -15 -8 -8 3 -15 1 -15 -4 0
-6 -7 -10 -15 -10 -20 0 -19 -28 4 -73 29 -57 20 -75 -40 -73 -53 2 -59 -6
-30 -38 13 -15 17 -30 14 -53 -5 -29 -8 -32 -29 -27 -19 5 -23 3 -18 -10 4
-10 18 -16 35 -16 21 0 27 -4 23 -15 -4 -8 -16 -15 -28 -15 -20 0 -61 -20 -42
-20 5 0 3 -6 -3 -14 -9 -10 -9 -16 -1 -21 8 -5 8 -11 -1 -21 -6 -8 -7 -14 -2
-14 5 0 19 18 32 40 12 22 27 40 32 40 6 0 7 -4 4 -10 -3 -5 -1 -20 6 -32 9
-19 9 -21 -1 -11 -10 10 -17 4 -33 -28 -15 -31 -22 -37 -29 -27 -7 9 -8 8 -4
-5 3 -10 6 -28 6 -38 0 -11 4 -17 10 -14 7 4 7 -2 0 -19 -9 -24 -8 -25 10 -14
11 7 20 16 20 20 0 5 5 8 12 8 9 0 9 -3 0 -12 -15 -15 -16 -52 -1 -42 8 4 9
-1 4 -17 -5 -20 -4 -21 5 -9 10 13 11 12 6 -3 -3 -10 -6 -21 -6 -23 0 -3 -4
-2 -10 1 -5 3 -10 -2 -10 -12 0 -11 -5 -24 -11 -30 -12 -12 -3 -53 12 -53 12
0 11 18 -2 22 -12 4 -2 35 14 41 9 3 12 -14 10 -57 -1 -50 1 -58 10 -42 7 11
20 28 30 38 18 19 23 33 8 24 -14 -9 -23 42 -11 64 13 24 13 30 0 30 -5 0 -10
-8 -11 -17 -1 -10 -6 -1 -11 20 -7 27 -7 42 0 49 8 8 9 5 6 -9 -3 -12 -1 -24
5 -27 6 -4 11 -3 11 2 0 5 7 9 15 9 10 0 12 -4 5 -12 -5 -6 -5 -17 -1 -24 6
-9 11 1 16 30 5 24 10 38 12 31 8 -22 23 -2 23 31 0 24 3 28 10 17 5 -8 10
-10 10 -5 1 6 6 -1 11 -14 10 -26 3 -43 -10 -22 -5 7 -9 -14 -9 -49 0 -34 -5
-67 -11 -74 -6 -7 -7 -22 -4 -35 4 -17 8 -20 15 -9 9 13 7 -3 -8 -82 -3 -16
-10 -30 -15 -30 -12 0 -29 44 -29 78 0 19 -3 23 -11 15 -7 -7 -8 -23 -3 -45 4
-18 7 -40 5 -48 -2 -13 -1 -13 8 0 9 13 11 13 11 -2 0 -11 6 -15 20 -11 11 3
20 12 20 19 0 8 5 14 11 14 16 0 36 -24 31 -38 -3 -10 -7 -9 -16 3 -9 13 -11
9 -11 -19 0 -32 15 -66 15 -35 1 11 3 10 10 -2 6 -10 6 -28 0 -48 -7 -26 -6
-30 6 -23 9 5 21 20 28 33 6 13 18 24 25 24 8 0 22 15 32 33 25 49 28 49 17 0
-5 -24 -7 -55 -4 -70 3 -16 1 -28 -5 -28 -6 0 -7 6 -3 13 6 8 3 8 -9 -1 -14
-12 -17 -10 -25 20 l-9 33 -11 -25 c-11 -28 -4 -50 9 -29 7 11 9 10 9 -3 0
-10 4 -18 9 -18 4 0 6 -11 3 -25 -2 -14 -8 -22 -14 -19 -5 3 -6 14 -3 23 3 11
0 18 -8 18 -15 0 -13 -23 3 -62 5 -11 11 -32 14 -47 4 -18 11 -25 20 -22 20 8
29 -38 11 -55 -8 -8 -18 -12 -22 -8 -3 4 -1 13 5 19 17 17 15 33 -3 18 -21
-18 -19 -50 3 -50 10 0 22 4 28 9 13 13 62 2 69 -16 9 -24 -10 -39 -68 -52
-75 -16 -119 -59 -142 -136 -20 -70 -15 -163 10 -181 8 -6 15 -17 15 -25 0 -8
11 -35 25 -61 14 -26 25 -56 25 -67 0 -11 5 -23 11 -26 5 -4 15 -19 20 -33 10
-26 11 -26 25 -8 14 20 14 19 14 -1 0 -11 9 -28 19 -37 11 -10 22 -30 26 -44
7 -25 8 -26 15 -7 8 18 9 18 9 -6 1 -14 -4 -30 -11 -37 -9 -9 -8 -12 4 -12 10
0 19 -12 23 -31 9 -40 116 -145 175 -172 29 -13 74 -22 128 -25 45 -2 82 -8
82 -13 0 -5 -5 -9 -10 -9 -6 0 -6 -7 1 -19 17 -25 49 -16 49 15 0 15 -6 24
-15 24 -22 0 -18 11 12 37 31 27 36 28 53 8 7 -8 19 -15 26 -15 8 0 14 -8 14
-17 1 -17 1 -17 14 0 16 20 27 23 20 3 -3 -8 0 -17 5 -21 15 -9 3 -27 -12 -19
-9 5 -9 4 -1 -6 7 -6 24 -13 38 -13 15 -1 29 -9 32 -20 3 -9 10 -14 16 -11 7
5 9 0 6 -14 -4 -16 -1 -22 15 -24 11 -2 22 -9 25 -17 3 -9 0 -11 -7 -6 -17 10
9 -35 28 -51 10 -8 11 -13 3 -18 -16 -10 -14 -47 3 -70 8 -11 15 -25 15 -30 0
-6 -5 -4 -10 4 -8 11 -10 2 -8 -32 2 -25 6 -44 10 -42 14 9 19 -17 7 -33 -11
-12 -11 -17 2 -27 9 -6 19 -29 22 -51 6 -34 5 -37 -6 -22 -6 11 -31 44 -54 75
-23 32 -43 65 -43 74 0 9 -4 19 -9 22 -4 3 -11 18 -14 33 -3 16 -19 42 -34 59
-16 17 -28 35 -26 41 2 5 -4 16 -13 24 -14 11 -18 11 -21 1 -3 -6 -10 -9 -16
-5 -7 4 -6 0 1 -10 8 -9 12 -22 9 -29 -4 -8 -6 -7 -6 5 -1 9 -5 17 -10 17 -12
0 -9 -170 3 -188 4 -7 3 -19 -3 -26 -18 -22 -11 -165 8 -176 11 -7 12 -9 3
-10 -8 0 -10 -5 -6 -12 5 -7 7 -25 6 -40 -1 -15 2 -28 7 -28 6 0 6 -12 -1 -31
-11 -31 -8 -37 27 -53 6 -3 2 -10 -7 -16 -10 -6 -18 -18 -18 -25 0 -18 0 -18
-38 1 -31 15 -50 53 -38 73 8 12 -24 30 -42 24 -18 -7 -39 52 -52 143 -31 225
-59 323 -68 241 -3 -20 -8 -27 -18 -23 -9 3 -12 1 -9 -4 3 -6 1 -10 -4 -10 -6
0 -11 -11 -11 -25 0 -17 -6 -25 -17 -25 -16 -1 -16 -2 1 -15 11 -8 15 -15 9
-15 -6 0 -14 -11 -17 -25 -4 -14 -10 -23 -15 -21 -5 3 -8 -6 -8 -19 0 -14 4
-25 9 -25 6 0 -2 -16 -17 -35 -22 -29 -24 -39 -14 -51 10 -12 9 -13 -3 -9 -23
9 -32 -37 -11 -53 15 -11 15 -12 -5 -12 -13 0 -22 -6 -22 -15 0 -8 -5 -15 -11
-15 -6 0 -9 7 -5 15 12 31 -10 13 -31 -26 -12 -23 -16 -36 -9 -30 11 9 15 7
19 -9 3 -11 0 -20 -6 -20 -8 0 -7 -4 2 -9 11 -7 11 -14 -2 -40 -9 -17 -11 -31
-5 -31 5 0 12 9 15 20 3 11 8 18 12 15 4 -2 15 7 25 21 11 13 23 24 28 24 11
0 0 -41 -15 -55 -7 -7 -8 -6 -3 3 4 6 4 12 -1 12 -12 0 -53 -46 -53 -59 0 -6
-5 -11 -11 -11 -5 0 -8 -4 -5 -8 2 -4 1 -14 -5 -22 -7 -12 -9 -11 -10 5 0 19
-1 18 -11 -3 -6 -12 -17 -22 -24 -22 -19 0 -34 -33 -27 -58 3 -12 12 -22 20
-22 12 0 13 -3 4 -13 -6 -8 -8 -17 -4 -20 3 -4 1 -7 -6 -7 -9 0 -11 -8 -8 -21
3 -12 0 -28 -9 -36 -8 -8 -14 -19 -14 -24 0 -12 27 -12 35 1 7 12 25 4 25 -11
0 -6 -5 -7 -10 -4 -6 3 -13 -1 -16 -10 -4 -9 -23 -25 -43 -36 -20 -11 -27 -17
-16 -14 16 5 18 4 8 -6 -15 -15 -17 -33 -3 -24 6 4 5 -5 -2 -20 l-12 -26 -12
23 c-12 22 -12 21 -19 -16 -5 -24 -4 -41 3 -45 7 -4 3 -15 -10 -31 -11 -14
-17 -19 -13 -12 3 7 0 12 -8 12 -10 0 -13 -8 -9 -26 4 -20 2 -25 -8 -19 -10 6
-12 3 -8 -13 4 -12 3 -22 -1 -22 -4 0 -8 -7 -8 -15 0 -8 4 -15 8 -15 4 0 9 -6
12 -14 4 -10 -4 -18 -24 -25 -18 -6 -29 -6 -29 0 0 5 8 9 18 10 14 0 14 2 -3
8 -24 10 -25 9 -29 -22 -1 -14 -10 -32 -19 -42 -22 -21 -12 -38 13 -23 11 7
22 9 26 6 11 -11 -5 -40 -19 -35 -9 3 -13 -5 -12 -24 l0 -29 367 0 367 0 -2
43 c-1 23 -6 45 -11 48 -9 7 -12 27 -15 82 0 16 -5 26 -9 23 -4 -2 -8 4 -9 14
-2 22 13 35 22 20 13 -21 22 -9 20 25 -1 20 -5 38 -8 41 -3 3 -3 12 -1 19 3 7
-2 15 -11 19 -10 3 -15 13 -12 21 4 10 1 12 -10 8 -12 -5 -14 -1 -9 14 5 15 1
22 -12 25 -11 3 -22 16 -24 29 -3 13 -18 56 -32 94 -31 81 -39 142 -20 149 7
3 46 -26 86 -65 40 -38 91 -79 113 -91 22 -11 42 -24 45 -28 9 -13 153 -70
162 -64 4 3 8 1 8 -4 0 -6 24 -16 53 -22 28 -7 68 -20 87 -30 19 -9 41 -15 48
-13 6 3 12 0 12 -5 0 -6 18 -13 40 -17 22 -4 40 -11 40 -16 0 -5 11 -9 25 -9
14 0 42 -9 62 -20 35 -19 38 -19 45 -3 11 29 9 33 -16 33 -31 0 -53 25 -33 37
8 4 16 15 19 23 5 12 7 11 13 -4 6 -13 3 -23 -10 -32 -21 -15 -8 -17 33 -6
l23 7 -22 23 c-28 31 -10 55 20 28 23 -21 189 -38 177 -18 -4 7 -32 10 -70 9
-55 -2 -68 1 -88 20 -13 13 -30 23 -37 23 -6 0 -1 12 13 27 14 15 29 24 33 19
4 -4 1 -11 -7 -16 -12 -8 -12 -10 2 -15 9 -4 14 -13 11 -21 -4 -10 3 -14 23
-15 16 0 37 -2 48 -4 14 -3 16 -1 7 8 -18 18 -13 25 15 19 16 -3 30 1 35 9 6
10 11 11 17 3 9 -14 61 -24 67 -13 3 4 1 10 -5 14 -5 3 -10 10 -10 14 0 11 43
29 58 24 14 -5 16 -33 2 -33 -5 0 -10 -4 -10 -10 0 -5 9 -10 21 -10 11 0 18
-3 16 -7 -3 -5 -34 -7 -70 -7 -53 1 -64 -1 -60 -13 3 -8 12 -12 19 -9 19 7 37
-27 22 -42 -9 -9 -9 -12 0 -12 24 0 10 -15 -30 -34 -23 -11 -37 -21 -31 -23 6
-2 30 7 54 20 57 30 203 128 207 139 2 4 8 8 13 8 5 0 37 23 71 50 34 28 66
50 71 50 6 0 16 8 23 18 12 15 13 13 8 -18 -11 -63 -24 -109 -34 -115 -6 -3
-10 -13 -10 -21 0 -8 -5 -20 -10 -27 -47 -56 -60 -74 -60 -84 0 -7 -5 -13 -11
-13 -5 0 -7 -5 -4 -10 3 -6 -2 -13 -12 -17 -24 -9 -47 -32 -49 -51 -2 -9 7 -5
25 12 44 42 60 35 50 -22 -11 -65 -26 -112 -42 -131 -7 -9 -18 -28 -25 -43
l-12 -28 1073 1 1072 0 -70 25 c-38 14 -79 28 -90 31 -39 11 -47 25 -25 40 39
28 28 47 -75 126 -44 34 -180 107 -199 107 -37 0 -168 64 -228 111 -35 27 -88
68 -118 91 -30 23 -77 67 -105 97 -117 128 -204 197 -225 177 -8 -8 -9 -6 -4
8 5 14 3 17 -12 14 -10 -2 -19 -10 -19 -18 0 -8 -4 -18 -9 -22 -6 -4 -5 -12 2
-20 7 -9 8 -19 2 -28 -8 -13 -10 -12 -10 3 0 9 -7 17 -15 17 -8 0 -21 12 -29
28 -14 27 -82 95 -90 90 -2 -2 -13 8 -25 22 -12 15 -20 20 -21 11 0 -31 -50
62 -50 94 0 23 -5 35 -14 35 -17 0 -27 -25 -19 -46 5 -13 2 -15 -17 -9 -15 5
-25 2 -31 -6 -7 -12 -9 -12 -9 0 0 8 8 23 17 33 15 17 15 19 -3 33 -11 9 -29
13 -43 9 -14 -3 -27 0 -32 8 -14 22 -20 2 -8 -26 15 -31 29 -34 36 -6 6 21 18
26 27 11 8 -12 -17 -61 -32 -61 -7 0 -15 -6 -18 -14 -3 -8 -15 -11 -30 -8 -14
2 -24 0 -24 -7 0 -6 5 -11 10 -11 6 0 10 -7 10 -15 0 -8 -4 -15 -10 -15 -5 0
-10 -8 -11 -17 0 -12 -4 -9 -10 9 -6 14 -17 29 -26 32 -20 8 -43 -11 -37 -29
5 -11 -2 -13 -31 -8 -35 6 -37 4 -30 -16 4 -15 2 -21 -9 -21 -8 0 -18 5 -21
10 -10 17 -25 11 -25 -9 0 -25 -18 -37 -33 -21 -9 10 -9 14 1 17 15 6 16 33 2
33 -6 0 -13 -7 -16 -15 -6 -16 -44 -21 -44 -6 0 9 -50 20 -108 24 -22 1 -31 6
-27 16 3 8 0 11 -9 8 -8 -3 -19 0 -25 7 -7 8 -24 16 -40 19 -16 3 -36 13 -44
22 -22 21 -27 19 -27 -12 l0 -28 -24 27 c-13 16 -29 28 -35 28 -7 0 -9 5 -6
10 3 6 -1 10 -9 10 -10 0 -15 8 -13 23 1 13 -4 23 -13 23 -8 1 -19 2 -23 3 -4
0 -3 9 2 19 15 29 0 42 -42 35 -20 -3 -37 -9 -37 -13 0 -4 -11 -5 -26 -2 -21
4 -25 9 -22 36 2 25 7 30 23 28 19 -3 19 -3 -1 12 -12 9 -37 14 -57 13 -33 -3
-36 -1 -42 30 -3 18 -1 41 4 52 8 14 6 23 -9 36 -26 23 -25 45 0 52 22 6 27
28 9 39 -8 4 -7 9 2 15 12 7 12 9 0 9 -8 0 -20 -8 -27 -18 -12 -16 -13 -15
-14 9 0 14 6 31 13 38 10 10 9 15 -5 25 -9 7 -19 23 -22 37 -13 60 -24 96 -34
114 -10 18 -28 137 -26 178 1 31 -30 14 -49 -26 -9 -20 -22 -37 -29 -37 -6 0
-8 -3 -5 -7 8 -7 -21 -43 -35 -43 -4 0 -8 9 -8 20 0 12 -7 20 -16 20 -13 0
-14 -3 -5 -14 8 -10 8 -16 -2 -25 -8 -6 -17 -8 -20 -4 -4 3 -7 -2 -7 -13 0
-14 10 -23 33 -29 26 -8 33 -16 35 -42 3 -26 0 -33 -15 -33 -17 -1 -17 -2 1
-15 12 -9 20 -28 20 -48 1 -31 3 -32 39 -31 40 2 52 -13 15 -18 -15 -2 -24
-11 -26 -25 -3 -23 12 -32 22 -14 9 14 43 20 43 7 -1 -32 7 -43 43 -60 41 -20
49 -31 28 -39 -10 -3 -10 -8 1 -21 18 -21 6 -34 -18 -19 -17 10 -21 7 -35 -30
-9 -24 -16 -54 -16 -67 0 -24 -2 -23 -22 9 -15 23 -23 52 -24 85 -1 28 -2 54
-3 59 -2 13 -21 7 -40 -12 -16 -16 -22 -17 -30 -7 -8 10 -7 17 4 26 26 21 19
57 -14 68 -22 8 -28 15 -24 30 3 11 -1 22 -10 25 -17 6 -14 77 4 125 6 16 6
29 0 35 -16 16 -33 -4 -29 -34 3 -20 0 -29 -9 -29 -7 0 -13 11 -13 26 0 14 -4
23 -10 19 -5 -3 -10 -15 -10 -26 0 -11 -4 -18 -10 -14 -5 3 -5 -6 1 -24 8 -21
7 -35 0 -48 -9 -13 -11 -14 -10 -3 3 31 -1 38 -21 33 -23 -6 -26 8 -8 36 6 11
8 26 3 37 -7 18 -8 18 -12 2 -6 -24 -20 -23 -33 1 -13 25 -13 34 1 25 14 -8 2
54 -13 74 -15 18 -28 15 -28 -8 0 -28 -27 -25 -32 4 -6 29 8 56 27 56 17 0 20
16 4 25 -5 4 -18 0 -28 -9 -10 -9 -25 -16 -35 -16 -16 0 -16 2 1 25 10 13 23
25 30 25 6 0 9 9 6 20 -3 11 -10 17 -16 13 -7 -4 -8 0 -4 11 4 10 7 20 7 22 0
2 9 4 20 4 11 0 20 -6 20 -13 0 -7 9 -18 20 -25 16 -10 20 -10 20 2 0 8 -6 16
-12 19 -7 2 -1 8 14 12 23 6 26 10 18 26 -6 10 -16 16 -23 14 -6 -3 -18 7 -24
22 -16 33 -10 41 13 18 14 -13 19 -14 25 -3 12 18 11 56 -1 63 -5 3 -10 -3
-10 -14 0 -14 -5 -19 -15 -15 -8 3 -22 -2 -32 -12 -13 -12 -14 -19 -5 -22 13
-4 17 -34 5 -45 -3 -4 -12 -2 -20 4 -10 9 -13 7 -13 -10 0 -26 -16 -27 -30 -2
-13 25 -13 78 0 86 6 3 10 17 10 31 0 21 -3 24 -25 18 -19 -5 -25 -2 -25 11 0
9 -4 14 -9 11 -4 -3 -7 6 -5 20 2 18 -4 28 -19 34 l-22 9 23 0 c16 1 22 7 21
24 -1 16 -2 18 -6 4 -5 -20 -23 -23 -23 -4 0 8 -11 24 -26 37 -21 21 -27 22
-35 10 -7 -11 -8 -6 -4 18 5 24 3 34 -9 38 -9 3 -16 15 -16 25 0 10 -4 19 -10
19 -19 0 -10 38 10 43 11 3 20 13 20 24 0 10 7 37 15 59 13 38 13 66 1 167 -2
15 -4 42 -5 60 -1 24 -4 28 -11 17 -14 -22 -6 81 9 107 6 12 11 43 11 70 0 32
3 43 9 34 7 -11 15 -5 34 26 22 34 24 45 17 84 -5 24 -6 47 -3 52 6 9 45 -2
54 -15 4 -6 14 -5 27 3 15 9 19 21 16 47 -2 24 4 44 17 60 23 29 25 62 4 62
-18 0 -19 12 -3 28 10 10 10 15 -1 22 -20 12 -24 97 -5 104 16 6 19 32 3 41
-5 4 -19 -1 -30 -11 -19 -17 -23 -14 -20 19 1 9 -3 17 -9 17 -6 0 -8 10 -4 25
5 19 2 25 -11 25 -12 0 -16 6 -12 20 3 11 1 18 -4 14 -5 -3 -9 1 -9 8 0 7 -11
35 -25 62 -21 43 -23 71 -5 86 3 3 13 17 22 31 18 28 87 54 118 44 15 -5 17
-2 13 15 -4 13 -1 20 10 20 8 0 20 7 27 15 7 8 22 15 34 15 11 0 34 11 50 25
33 28 54 32 62 11 6 -16 60 -14 92 3 26 14 89 14 97 1 4 -6 12 -9 18 -8 7 1
25 -1 40 -5 20 -5 32 -3 43 8 19 18 29 19 46 2 7 -8 20 -11 28 -9 11 4 11 0
-3 -21 -23 -35 0 -37 32 -3 19 20 28 23 52 16 17 -5 37 -6 45 -3 8 3 20 0 27
-6 8 -6 47 -11 88 -12 49 -1 95 -9 138 -24 67 -25 129 -24 144 2 5 7 12 11 16
8 5 -2 33 -11 64 -19 60 -16 97 -12 97 10 0 8 5 14 10 14 6 0 10 -11 10 -24 0
-13 6 -27 13 -29 9 -4 8 -8 -3 -16 -8 -6 -19 -12 -24 -14 -5 -2 -7 -9 -5 -16
4 -11 8 -10 21 3 22 22 51 10 42 -18 -4 -11 -11 -26 -15 -32 -6 -8 -4 -14 7
-18 23 -9 24 -8 24 14 0 11 5 20 10 20 6 0 10 -8 8 -17 -2 -12 5 -19 21 -21
21 -3 23 -1 18 20 -4 12 -7 40 -7 61 0 26 -4 37 -15 37 -8 0 -15 8 -15 18 0
10 -6 24 -12 30 -10 10 -10 17 0 32 15 25 16 107 0 112 -19 7 1 27 55 55 36
18 46 28 35 31 -11 2 -18 13 -18 25 0 18 2 19 10 7 8 -13 10 -13 10 1 0 9 11
28 25 43 14 15 25 29 25 31 0 1 -16 3 -36 3 -52 0 -63 17 -22 32 30 12 31 14
10 17 -12 3 -20 9 -17 14 6 9 -30 27 -69 33 -14 2 -20 9 -18 22 2 11 8 21 13
22 5 2 9 11 8 20 0 10 -3 12 -5 5 -7 -17 -44 16 -44 39 0 10 -7 18 -15 18 -8
0 -15 5 -15 10 0 6 -5 10 -11 10 -5 0 -7 -5 -4 -10 3 -6 -6 -5 -22 2 -15 7
-32 18 -36 25 -4 7 -13 13 -18 13 -6 0 -7 -5 -3 -12 4 -7 3 -8 -4 -4 -9 5 -9
13 -2 26 13 24 13 40 0 20 -5 -8 -10 -10 -10 -4 0 7 -20 15 -44 18 -29 5 -55
17 -75 36 -17 17 -35 30 -41 30 -5 0 -10 4 -10 9 0 5 -15 5 -36 1 -25 -6 -37
-5 -40 4 -3 7 -29 13 -62 14 -31 1 -58 7 -60 12 -7 19 -49 10 -77 -16z m-308
-16 c-3 -8 -6 -5 -6 6 -1 11 2 17 5 13 3 -3 4 -12 1 -19z m-98 -55 c-29 -49
-39 -60 -39 -44 0 18 21 54 39 68 24 19 24 16 0 -24z m-36 -9 c-8 -20 -22 -17
-20 5 0 10 7 17 13 14 7 -3 10 -11 7 -19z m-343 7 c0 -12 -20 -25 -27 -18 -7
7 6 27 18 27 5 0 9 -4 9 -9z m171 -20 c-6 -4 -9 -14 -6 -22 3 -9 -5 -24 -20
-37 -14 -12 -28 -35 -31 -52 -4 -16 -12 -31 -20 -34 -19 -7 -18 -4 17 67 44
85 62 112 67 97 3 -7 -1 -16 -7 -19z m239 -18 c-11 -17 -11 -17 -6 0 3 10 7
26 7 35 1 15 2 15 6 0 2 -10 -1 -25 -7 -35z m40 37 c0 -5 -5 -10 -11 -10 -5 0
-7 5 -4 10 3 6 8 10 11 10 2 0 4 -4 4 -10z m180 0 c0 -5 -5 -10 -11 -10 -5 0
-7 5 -4 10 3 6 8 10 11 10 2 0 4 -4 4 -10z m-680 -30 c0 -5 -5 -10 -11 -10 -5
0 -7 5 -4 10 3 6 8 10 11 10 2 0 4 -4 4 -10z m-52 -37 c-2 -10 -8 -18 -14 -18
-6 0 -31 -20 -55 -44 -36 -36 -40 -42 -20 -36 24 7 23 5 -9 -35 -20 -25 -36
-38 -38 -30 -3 7 1 16 8 20 7 5 14 16 15 27 1 10 6 28 13 39 6 12 8 24 5 28
-3 3 0 6 8 7 8 0 25 13 39 29 28 32 53 39 48 13z m190 -13 c-10 -31 -28 -50
-28 -30 0 11 29 60 36 60 1 0 -2 -14 -8 -30z m187 -18 c-34 -51 -46 -64 -53
-58 -7 8 60 106 70 100 4 -3 -4 -21 -17 -42z m195 36 c0 -7 -5 -20 -10 -28 -8
-12 -10 -9 -10 13 0 15 5 27 10 27 6 0 10 -6 10 -12z m-133 -30 c-3 -8 -6 -5
-6 6 -1 11 2 17 5 13 3 -3 4 -12 1 -19z m-452 -38 c-10 -11 -20 -18 -23 -15
-3 3 3 14 13 25 10 11 20 18 23 15 3 -3 -3 -14 -13 -25z m161 8 c4 -7 3 -8 -4
-4 -7 4 -12 2 -12 -5 0 -7 -3 -10 -6 -6 -6 5 3 27 11 27 2 0 7 -5 11 -12z
m274 -28 c-6 -11 -18 -20 -28 -20 -14 1 -13 4 7 20 29 25 34 25 21 0z m-440
-29 c0 -13 -41 -63 -47 -57 -3 3 5 18 18 35 26 33 29 35 29 22z m156 -19 c-18
-16 -18 -16 -6 6 6 13 14 21 18 18 3 -4 -2 -14 -12 -24z m-56 -12 c-6 -11 -13
-20 -16 -20 -2 0 0 9 6 20 6 11 13 20 16 20 2 0 0 -9 -6 -20z m190 -15 c-7 -9
-15 -13 -19 -10 -3 3 1 10 9 15 21 14 24 12 10 -5z m-590 -19 c0 -1 -13 -15
-29 -30 l-28 -27 10 34 c8 26 15 33 29 29 10 -2 18 -5 18 -6z m46 -41 c-41
-42 -51 -56 -83 -105 -16 -26 -63 -55 -63 -40 0 5 18 27 40 50 22 23 40 44 40
47 0 6 -32 -18 -42 -32 -4 -5 -8 -7 -8 -2 0 13 -78 -32 -93 -54 -10 -13 -16
-16 -19 -8 -3 8 -16 2 -38 -17 -65 -54 -104 -79 -97 -61 4 10 1 17 -6 17 -7 1
0 7 14 15 15 8 29 21 33 30 3 8 13 15 21 15 18 0 94 49 114 74 7 9 17 14 21
11 4 -3 13 2 20 10 7 8 16 12 21 9 5 -3 9 0 9 6 0 6 4 9 9 6 8 -5 53 24 83 54
8 8 26 16 40 16 24 2 23 0 -16 -41z m58 -4 c-12 -24 -19 -29 -25 -20 -4 8 1
21 14 35 28 29 31 25 11 -15z m106 14 c-17 -20 -5 -32 15 -15 12 10 15 10 15
-4 0 -10 4 -15 9 -12 5 4 11 0 14 -6 3 -10 10 -8 26 6 11 11 21 15 21 10 0
-13 -39 -36 -50 -29 -6 4 -10 -1 -10 -9 0 -9 -5 -16 -11 -16 -6 0 -8 9 -4 20
4 11 2 20 -4 20 -6 0 -11 -4 -11 -9 0 -5 -10 -11 -22 -15 -13 -3 -25 -6 -28
-7 -13 -3 -67 -46 -82 -64 -9 -11 -20 -17 -24 -12 -9 9 94 117 112 117 6 0 16
12 23 26 6 15 14 24 18 21 3 -4 0 -13 -7 -22z m150 11 c0 -3 -4 -8 -10 -11 -5
-3 -10 -1 -10 4 0 6 5 11 10 11 6 0 10 -2 10 -4z m138 -56 c-7 -11 -16 -20
-20 -20 -5 0 -8 -7 -8 -15 0 -8 -4 -15 -10 -15 -17 0 -11 16 15 44 29 31 40
34 23 6z m-430 -24 c-7 -8 -15 -12 -17 -11 -5 6 10 25 20 25 5 0 4 -6 -3 -14z
m-188 -116 c0 -5 -5 -10 -11 -10 -5 0 -7 5 -4 10 3 6 8 10 11 10 2 0 4 -4 4
-10z m-265 -40 c-3 -5 -16 -15 -28 -21 -21 -10 -21 -9 2 10 25 23 36 27 26 11z
m-75 -90 c0 -5 -8 -10 -17 -10 -15 0 -16 2 -3 10 19 12 20 12 20 0z m154 -25
c-7 -17 -24 -21 -24 -5 0 6 -9 6 -25 0 -14 -6 -25 -6 -25 0 0 9 23 17 57 19
16 1 21 -3 17 -14z m3 -61 c-3 -3 -12 -4 -19 -1 -8 3 -5 6 6 6 11 1 17 -2 13
-5z m303 -14 c0 -5 -4 -10 -10 -10 -5 0 -10 5 -10 10 0 6 5 10 10 10 6 0 10
-4 10 -10z m-559 -54 c-6 -14 -13 -26 -15 -26 -3 0 -2 7 1 17 5 12 3 14 -8 8
-8 -4 -5 1 6 12 25 25 28 23 16 -11z m129 -36 c0 -5 -2 -10 -4 -10 -3 0 -8 5
-11 10 -3 6 -1 10 4 10 6 0 11 -4 11 -10z m184 -16 c3 -8 2 -12 -4 -9 -6 3
-10 10 -10 16 0 14 7 11 14 -7z m-169 -14 c3 -5 -1 -10 -10 -10 -9 0 -13 5
-10 10 3 6 8 10 10 10 2 0 7 -4 10 -10z m169 -36 c3 -8 2 -12 -4 -9 -6 3 -10
10 -10 16 0 14 7 11 14 -7z m-421 -224 c-3 -11 -9 -20 -15 -20 -5 0 -4 9 2 20
6 11 12 20 14 20 2 0 2 -9 -1 -20z m314 -42 c-3 -8 -6 -5 -6 6 -1 11 2 17 5
13 3 -3 4 -12 1 -19z m94 -15 c-12 -20 -14 -14 -5 12 4 9 9 14 11 11 3 -2 0
-13 -6 -23z m-355 -25 c-18 -26 -22 -17 -5 14 6 11 13 17 16 15 3 -3 -2 -16
-11 -29z m191 18 c0 -8 -6 -12 -14 -9 -7 3 -13 9 -13 14 0 5 6 9 13 9 8 0 14
-6 14 -14z m-17 -40 c0 -2 -7 -6 -15 -10 -8 -3 -15 -1 -15 4 0 6 7 10 15 10 8
0 15 -2 15 -4z m-69 -77 c-7 -27 -9 -29 -10 -11 -1 13 -5 20 -11 17 -5 -3 -10
1 -10 9 0 10 6 13 15 10 8 -4 15 -1 15 7 0 7 3 10 6 7 3 -3 1 -21 -5 -39z m26
-41 c-3 -8 -6 -5 -6 6 -1 11 2 17 5 13 3 -3 4 -12 1 -19z m0 -60 c-3 -7 -5 -2
-5 12 0 14 2 19 5 13 2 -7 2 -19 0 -25z m53 -106 c0 -4 -9 -13 -20 -20 -24
-15 -26 -9 -4 12 17 18 24 20 24 8z m45 -11 c3 -5 1 -12 -5 -16 -5 -3 -10 1
-10 9 0 18 6 21 15 7z m15 -61 c0 -5 -2 -10 -4 -10 -3 0 -8 5 -11 10 -3 6 -1
10 4 10 6 0 11 -4 11 -10z m-33 -92 c-3 -8 -6 -5 -6 6 -1 11 2 17 5 13 3 -3 4
-12 1 -19z m-20 -30 c-3 -7 -5 -2 -5 12 0 14 2 19 5 13 2 -7 2 -19 0 -25z m-7
-42 c0 -3 -4 -8 -10 -11 -5 -3 -10 -1 -10 4 0 6 5 11 10 11 6 0 10 -2 10 -4z
m96 -47 c3 -6 1 -15 -5 -20 -6 -5 -9 -6 -6 -3 3 4 0 13 -6 21 -8 9 -8 13 -1
13 6 0 14 -5 18 -11z m618 -95 c3 -8 2 -12 -4 -9 -6 3 -10 10 -10 16 0 14 7
11 14 -7z m-416 -70 c26 -2 54 -5 64 -5 21 -1 98 -66 98 -84 0 -8 14 -23 30
-35 17 -12 38 -40 47 -61 14 -35 23 -44 46 -40 4 0 7 -6 7 -14 0 -8 -5 -15
-10 -15 -6 0 -3 -11 6 -25 13 -20 14 -28 4 -39 -7 -10 -8 -21 -2 -33 5 -10 7
-23 5 -29 -2 -6 1 -31 7 -55 11 -44 13 -149 3 -159 -3 -3 -18 11 -34 30 -30
35 -32 34 -29 -12 2 -30 -26 -78 -45 -78 -15 0 -28 -27 -19 -41 3 -5 10 -7 15
-3 18 11 49 -28 49 -61 0 -38 -14 -52 -58 -61 -31 -6 -32 -5 -33 27 -2 31 -2
31 -6 6 -5 -31 -23 -27 -23 6 l0 21 -15 -21 c-21 -30 -49 -34 -90 -12 -19 10
-44 19 -55 19 -14 0 -20 6 -18 16 2 10 -4 19 -12 21 -13 4 -13 3 0 -6 8 -6 11
-11 5 -11 -16 0 -31 13 -44 38 -11 20 -15 21 -29 11 -14 -11 -15 -11 -4 1 6 8
12 21 12 29 0 14 -1 14 -10 1 -8 -13 -10 -13 -10 2 0 12 10 18 32 20 17 2 33
8 35 14 2 6 -18 32 -44 59 -26 26 -40 45 -30 41 10 -3 24 -6 30 -6 7 0 17 -10
22 -22 14 -32 39 -29 43 3 2 19 8 26 20 24 64 -13 70 -16 82 -44 14 -36 57
-49 101 -31 40 17 38 47 -11 108 -21 28 -43 53 -49 56 -20 13 -23 104 -6 157
17 50 17 53 -1 66 -37 28 -54 34 -54 21 0 -7 -9 -2 -20 12 -19 23 -21 24 -34
8 -13 -18 -66 -57 -96 -71 -71 -34 -95 -54 -98 -80 -3 -23 -6 -25 -22 -17 -26
14 -30 45 -21 156 12 127 39 194 80 194 15 0 35 -8 44 -17 21 -24 26 -81 8
-92 -19 -12 -9 -33 23 -51 23 -12 29 -12 36 -1 5 9 19 12 39 9 27 -4 31 -2 31
19 0 13 -5 33 -12 46 -6 12 -14 29 -19 37 -4 8 -12 14 -19 12 -6 -1 -14 6 -17
16 -2 10 -18 26 -34 36 -44 26 -24 39 22 15 22 -11 62 -22 87 -25z m-28 -279
c0 -49 0 -48 16 -66 8 -9 12 -23 9 -32 -4 -8 -1 -18 5 -22 6 -4 8 -20 4 -41
-5 -29 -3 -35 20 -45 29 -13 34 -36 11 -45 -8 -3 -37 -1 -65 6 -42 10 -55 19
-80 55 -33 48 -36 71 -15 99 8 10 12 23 9 28 -3 4 2 11 10 14 9 3 16 13 16 20
0 22 30 64 46 64 9 0 14 -12 14 -35z m350 25 c0 -5 -5 -10 -11 -10 -5 0 -7 5
-4 10 3 6 8 10 11 10 2 0 4 -4 4 -10z m30 -42 c0 -18 -2 -20 -9 -8 -6 8 -7 18
-5 22 9 14 14 9 14 -14z m-520 -208 c0 -5 -4 -10 -9 -10 -6 0 -13 5 -16 10 -3
6 1 10 9 10 9 0 16 -4 16 -10z m702 -95 c-2 -19 -5 -35 -7 -35 -2 0 -5 16 -7
35 -2 21 0 35 7 35 7 0 9 -14 7 -35z m14 -101 c2 -23 1 -24 -11 -7 -7 10 -11
21 -9 25 10 16 19 7 20 -18z m34 -174 c12 -8 11 -10 -7 -10 -13 0 -23 5 -23
10 0 13 11 13 30 0z m65 -40 c3 -5 -1 -10 -10 -10 -9 0 -13 5 -10 10 3 6 8 10
10 10 2 0 7 -4 10 -10z m-155 -30 c0 -5 -5 -10 -11 -10 -5 0 -7 5 -4 10 3 6 8
10 11 10 2 0 4 -4 4 -10z m174 -46 c15 -40 -3 -47 -21 -9 -9 20 -8 25 2 25 7
0 16 -7 19 -16z m206 -160 c0 -14 -3 -14 -15 -4 -8 7 -15 14 -15 16 0 2 7 4
15 4 8 0 15 -7 15 -16z m50 -89 c0 -8 -4 -15 -10 -15 -5 0 -7 7 -4 15 4 8 8
15 10 15 2 0 4 -7 4 -15z m165 -64 c3 -5 1 -12 -5 -16 -5 -3 -10 1 -10 9 0 18
6 21 15 7z m-145 -31 c0 -5 -4 -10 -10 -10 -5 0 -10 5 -10 10 0 6 5 10 10 10
6 0 10 -4 10 -10z m86 -17 c-10 -10 -19 5 -10 18 6 11 8 11 12 0 2 -7 1 -15
-2 -18z m252 -114 c-2 -6 -8 -10 -13 -10 -5 0 -11 4 -13 10 -2 6 4 11 13 11 9
0 15 -5 13 -11z m-1314 -114 c-4 -8 -10 -12 -15 -9 -11 6 -2 24 11 24 5 0 7
-7 4 -15z m-24 -41 c0 -14 -4 -23 -10 -19 -5 3 -10 -2 -10 -11 0 -10 -2 -15
-5 -12 -8 8 6 68 16 68 5 0 9 -12 9 -26z m2139 5 c-14 -8 -29 -3 -29 11 0 4 9
6 21 3 15 -4 17 -8 8 -14z m-1729 -69 c0 -5 -5 -10 -11 -10 -5 0 -7 5 -4 10 3
6 8 10 11 10 2 0 4 -4 4 -10z m1330 6 c0 -11 -19 -15 -25 -6 -3 5 1 10 9 10 9
0 16 -2 16 -4z m-1860 -173 c0 -19 -3 -24 -10 -17 -6 6 -8 18 -4 27 9 24 14
21 14 -10z m2640 7 c0 -5 -2 -10 -4 -10 -3 0 -8 5 -11 10 -3 6 -1 10 4 10 6 0
11 -4 11 -10z m-1090 -240 c0 -5 -5 -10 -11 -10 -5 0 -7 5 -4 10 3 6 8 10 11
10 2 0 4 -4 4 -10z m-735 -10 c3 -5 1 -10 -4 -10 -6 0 -11 5 -11 10 0 6 2 10
4 10 3 0 8 -4 11 -10z m155 -51 c0 -5 -7 -9 -15 -9 -8 0 -15 7 -15 15 0 9 6
12 15 9 8 -4 15 -10 15 -15z m-976 -56 c-20 -21 -24 -15 -12 19 10 27 12 29
18 13 4 -11 1 -25 -6 -32z m-24 -57 c0 -3 -4 -8 -10 -11 -5 -3 -10 -1 -10 4 0
6 5 11 10 11 6 0 10 -2 10 -4z m16 -34 c-3 -3 0 -12 7 -20 8 -11 9 -14 0 -9
-7 4 -17 0 -23 -10 -10 -16 -11 -15 -6 7 3 14 6 31 6 38 0 7 5 10 11 7 6 -4 8
-10 5 -13z m29 8 c3 -5 1 -10 -4 -10 -6 0 -11 5 -11 10 0 6 2 10 4 10 3 0 8
-4 11 -10z m-80 -68 c-15 -16 -16 -15 -4 12 7 15 15 23 17 16 3 -7 -3 -19 -13
-28z m-52 -37 c-26 -32 -53 -46 -53 -27 0 9 62 61 73 62 4 0 -5 -16 -20 -35z"/>
<path d="M670 2216 c0 -9 5 -16 10 -16 6 0 10 4 10 9 0 6 -4 13 -10 16 -5 3
-10 -1 -10 -9z"/>
<path d="M1580 4510 c0 -5 4 -10 9 -10 6 0 13 5 16 10 3 6 -1 10 -9 10 -9 0
-16 -4 -16 -10z"/>
<path d="M1627 4513 c-11 -10 -8 -33 4 -33 5 0 7 5 3 11 -3 6 0 15 7 20 8 5 9
9 3 9 -6 0 -14 -3 -17 -7z"/>
<path d="M2098 4506 c-24 -17 -23 -26 2 -21 11 2 20 -1 20 -7 0 -6 2 -9 5 -6
3 3 2 14 -2 26 -7 17 -11 19 -25 8z"/>
<path d="M1783 4503 c-15 -5 -17 -23 -4 -23 5 0 11 7 15 15 3 8 4 15 3 14 -1
0 -8 -3 -14 -6z"/>
<path d="M1735 4480 c-3 -5 -1 -10 4 -10 6 0 11 5 11 10 0 6 -2 10 -4 10 -3 0
-8 -4 -11 -10z"/>
<path d="M1272 4450 c0 -14 2 -19 5 -12 2 6 2 18 0 25 -3 6 -5 1 -5 -13z"/>
<path d="M1175 4420 c-51 -29 -95 -68 -95 -84 0 -4 6 -3 13 3 8 6 18 7 22 3 5
-4 5 -1 1 6 -4 7 -1 12 9 12 8 0 18 6 21 14 3 8 19 18 36 21 18 4 32 15 35 26
3 10 9 16 14 13 5 -3 9 0 9 5 0 16 -10 13 -65 -19z"/>
<path d="M1005 4320 c-3 -6 1 -7 9 -4 18 7 21 14 7 14 -6 0 -13 -4 -16 -10z"/>
<path d="M739 4104 c-13 -15 -18 -25 -10 -22 13 4 49 48 39 48 -2 0 -15 -12
-29 -26z"/>
<path d="M2989 3888 c11 -25 35 -68 55 -95 19 -26 54 -85 77 -131 46 -90 81
-133 53 -66 -9 22 -34 75 -56 119 -22 44 -44 89 -50 100 -5 11 -29 43 -54 70
l-45 50 20 -47z"/>
<path d="M2758 3633 c7 -3 16 -2 19 1 4 3 -2 6 -13 5 -11 0 -14 -3 -6 -6z"/>
<path d="M2950 3575 c-24 -14 -24 -14 23 -15 35 0 47 4 45 13 -6 18 -39 19
-68 2z"/>
<path d="M3040 3547 c0 -29 7 -37 26 -30 20 7 17 26 -6 41 -18 11 -20 10 -20
-11z"/>
<path d="M3131 3494 c0 -11 3 -14 6 -6 3 7 2 16 -1 19 -3 4 -6 -2 -5 -13z"/>
<path d="M2872 3479 c-8 -12 -12 -22 -10 -23 30 -17 59 -27 74 -25 27 3 104
-12 104 -21 0 -4 12 -12 26 -18 19 -9 24 -17 19 -32 -5 -16 0 -23 24 -31 29
-10 44 -39 21 -39 -5 0 -10 -5 -10 -11 0 -6 7 -9 15 -5 9 3 15 -1 15 -11 0
-20 39 -83 51 -83 12 0 12 72 -1 105 -6 15 -19 29 -30 32 -11 3 -20 9 -20 14
0 12 7 11 30 -3 30 -19 33 -4 11 41 -12 22 -21 50 -21 61 0 16 -4 20 -19 15
-22 -7 -44 16 -36 37 5 11 -1 15 -22 13 -41 -3 -43 -4 -37 -18 3 -8 -10 -17
-37 -24 -36 -9 -43 -8 -57 8 -9 10 -26 19 -37 19 -12 0 -25 4 -31 10 -6 6 -14
2 -22 -11z"/>
<path d="M3227 3315 c3 -33 7 -62 9 -64 8 -8 2 74 -7 99 -5 16 -6 4 -2 -35z"/>
<path d="M456 3204 c-3 -8 -2 -12 4 -9 6 3 10 0 10 -7 0 -10 3 -9 9 2 10 15 6
30 -9 30 -4 0 -11 -7 -14 -16z"/>
<path d="M420 3166 c0 -2 7 -7 16 -10 8 -3 12 -2 9 4 -6 10 -25 14 -25 6z"/>
<path d="M2970 3126 c0 -17 14 -29 23 -20 8 8 -3 34 -14 34 -5 0 -9 -6 -9 -14z"/>
<path d="M3016 3092 c-4 -7 -3 -12 3 -12 17 0 1 -26 -25 -40 -13 -7 -24 -19
-24 -27 0 -7 -8 -13 -17 -13 -9 0 -38 -18 -63 -39 -34 -28 -50 -37 -58 -29
-12 12 -46 3 -38 -11 8 -12 -31 -44 -43 -36 -6 3 -11 13 -11 22 0 10 -6 13
-16 9 -8 -3 -22 0 -29 7 -8 6 -22 18 -31 26 -24 21 -154 25 -154 5 0 -8 -4
-14 -10 -14 -5 0 -10 5 -10 10 0 11 -45 8 -150 -9 -30 -5 -59 -5 -64 0 -5 4
-18 3 -29 -2 -10 -6 -28 -8 -40 -5 -11 3 -36 -2 -55 -10 -19 -8 -43 -12 -53
-9 -9 3 -24 -2 -33 -10 -9 -9 -20 -14 -25 -10 -6 3 -14 -2 -19 -11 -7 -12 -11
-13 -17 -4 -5 8 -13 2 -26 -20 -11 -18 -27 -30 -37 -29 -30 3 -39 -1 -66 -26
-15 -14 -32 -25 -37 -25 -6 0 -33 -22 -60 -50 -27 -27 -53 -50 -57 -50 -4 0
-8 -9 -8 -19 0 -16 9 -19 66 -20 37 -1 78 5 95 13 49 22 97 38 153 49 28 6 52
14 52 18 0 8 31 5 75 -9 19 -6 29 -15 27 -25 -1 -9 6 -17 20 -20 17 -3 14 -5
-9 -6 -19 0 -33 4 -33 11 0 6 -3 8 -7 4 -5 -4 1 -14 11 -22 19 -13 19 -14 -7
-14 -15 0 -27 -4 -27 -10 0 -5 -9 -10 -21 -10 -12 0 -73 -16 -136 -36 -63 -20
-117 -33 -120 -30 -3 2 -14 -4 -26 -15 -13 -12 -36 -19 -61 -20 -41 0 -37 -6
18 -23 14 -5 16 -9 7 -20 -9 -11 -1 -15 45 -21 48 -6 53 -8 38 -19 -27 -20 -4
-25 51 -10 28 7 62 13 78 14 l27 0 -20 -20 c-11 -11 -24 -20 -29 -20 -13 0
-35 -29 -28 -37 4 -3 25 2 46 12 25 11 47 15 58 10 18 -8 27 -11 39 -14 4 0 1
-7 -6 -15 -9 -12 -5 -16 27 -22 38 -7 63 -24 63 -43 0 -6 21 -11 50 -11 38 0
50 4 50 15 0 8 6 15 13 15 7 0 20 9 30 20 9 11 28 20 42 20 15 0 24 4 20 9 -6
11 44 61 62 61 6 0 19 -14 27 -32 17 -32 13 -68 -6 -68 -7 0 -6 -5 2 -15 16
-20 50 2 50 32 0 24 14 31 25 13 13 -21 35 12 35 51 0 35 3 39 25 39 14 0 28
7 31 15 8 20 24 9 24 -16 0 -12 7 -19 20 -19 11 0 20 5 20 10 0 6 -4 10 -10
10 -17 0 -24 51 -9 61 18 11 13 80 -7 95 -8 6 -17 35 -20 63 -5 57 6 93 16 51
6 -25 7 -24 54 23 51 49 58 51 63 15 2 -12 8 -25 14 -29 8 -4 7 -8 -2 -12 -10
-4 -6 -12 14 -27 15 -12 27 -28 27 -36 0 -9 5 -12 10 -9 6 3 10 -3 10 -15 0
-12 4 -19 8 -16 4 3 17 -12 27 -32 11 -20 34 -60 52 -89 18 -29 33 -56 33 -61
0 -17 39 -98 60 -125 13 -17 27 -24 38 -21 13 5 14 4 3 -4 -12 -8 -10 -15 7
-39 60 -85 56 -154 -10 -163 -20 -3 -48 -15 -62 -27 -34 -30 -65 -29 -91 3
-42 53 -180 53 -224 0 -9 -11 -22 -14 -39 -9 -17 4 -23 2 -18 -6 5 -8 0 -8
-20 -1 -15 6 -34 8 -43 5 -10 -3 -20 5 -28 22 -15 31 -17 63 -4 63 5 0 8 8 7
17 -1 12 7 19 24 21 23 2 24 2 7 -12 -16 -13 -12 -14 45 -10 85 7 110 13 103
25 -4 5 -2 16 4 22 5 7 10 22 9 32 0 11 1 25 2 30 5 16 -11 65 -21 65 -5 0 -9
-11 -9 -25 0 -17 -5 -25 -18 -25 -10 0 -28 -7 -40 -16 -13 -9 -22 -11 -22 -4
0 8 -6 8 -20 0 -11 -6 -20 -21 -20 -35 0 -20 -5 -24 -30 -23 -16 1 -27 5 -24
10 3 4 -4 8 -15 8 -23 0 -28 -15 -8 -24 6 -3 2 -3 -9 -1 -16 4 -33 -6 -67 -41
-26 -26 -44 -51 -41 -56 3 -5 0 -7 -8 -6 -8 2 -13 -7 -14 -25 -1 -23 2 -26 18
-21 14 4 25 -1 34 -15 9 -12 22 -21 30 -21 8 0 14 -4 14 -10 0 -5 8 -10 17
-10 9 0 14 -3 10 -6 -8 -9 21 -37 52 -50 21 -9 26 -17 26 -49 l0 -39 45 -1
c25 -1 48 3 52 9 8 12 59 -36 70 -66 4 -9 19 -18 35 -20 33 -5 27 -8 -72 -36
-136 -39 -211 -52 -320 -53 -139 -1 -137 -1 -130 12 8 12 -64 2 -82 -13 -7 -6
-14 -5 -18 2 -4 7 2 14 14 17 22 6 30 46 11 58 -20 12 -2 61 36 101 51 54 60
66 68 92 4 12 12 22 17 22 5 0 9 5 9 12 0 7 12 25 27 40 15 15 22 28 16 28 -7
0 -19 7 -28 16 -14 15 -18 14 -41 -12 -14 -16 -32 -43 -40 -60 -7 -18 -27 -43
-44 -58 -17 -14 -29 -30 -26 -35 4 -5 -3 -12 -14 -16 -11 -3 -20 -11 -20 -16
0 -6 4 -7 10 -4 6 3 7 -1 4 -9 -3 -9 -10 -16 -15 -16 -5 0 -13 -8 -16 -17 -4
-10 -18 -33 -31 -50 -13 -18 -22 -33 -19 -33 3 0 -1 -16 -9 -35 -8 -20 -12
-40 -9 -45 10 -17 35 2 35 26 0 14 7 27 15 30 8 4 15 14 15 24 0 10 6 23 14
29 11 9 14 8 18 -6 7 -31 -3 -53 -23 -53 -16 0 -18 -4 -10 -18 6 -11 6 -24 0
-33 -13 -21 -11 -39 6 -39 9 0 26 -9 38 -21 12 -12 39 -32 60 -46 21 -13 40
-30 44 -38 3 -8 9 -13 13 -10 4 3 25 -7 46 -22 22 -14 62 -35 89 -45 28 -10
60 -23 71 -29 15 -8 27 -8 41 0 19 10 111 1 166 -15 19 -6 23 -30 5 -36 -8 -3
-5 -12 9 -27 14 -15 28 -21 38 -17 9 3 35 -3 58 -14 44 -22 68 -25 82 -11 6 4
22 11 38 15 34 8 36 -10 2 -26 -29 -13 -31 -21 -10 -38 8 -7 15 -19 15 -26 0
-8 5 -14 10 -14 6 0 10 -4 10 -10 0 -5 -13 -10 -30 -10 -27 0 -30 3 -30 29 0
36 -17 50 -23 19 l-4 -23 -8 23 c-9 27 -53 31 -62 5 -3 -10 -13 -26 -21 -35
-13 -16 -13 -20 1 -35 9 -11 13 -28 10 -44 -3 -15 0 -30 6 -33 7 -4 9 -1 5 8
-4 10 2 15 18 18 17 2 23 9 23 28 0 18 6 26 23 28 24 4 27 -1 12 -28 -7 -14
-5 -19 10 -23 11 -3 20 -12 20 -21 0 -9 5 -16 10 -16 6 0 10 7 10 15 0 8 7 15
16 15 10 0 14 6 10 15 -7 18 10 20 18 3 5 -13 27 7 41 36 3 8 7 7 11 -2 4 -9
12 -9 33 4 22 13 26 21 23 49 -2 18 1 36 7 39 14 9 15 56 1 56 -5 0 -12 -11
-16 -25 -4 -15 -13 -25 -24 -25 -10 0 -22 -9 -25 -20 -9 -27 -37 -41 -56 -29
-11 8 -11 12 -1 16 14 5 17 33 3 33 -5 0 -12 -6 -14 -12 -4 -10 -6 -10 -6 0
-1 7 13 26 29 42 17 17 28 30 24 30 -4 0 4 10 18 23 66 59 64 58 93 47 22 -8
25 -14 17 -22 -15 -15 -16 -42 -2 -33 6 3 10 0 10 -7 0 -10 3 -9 11 2 9 12 10
12 5 -3 -3 -11 -9 -30 -12 -43 -4 -14 -11 -21 -18 -17 -6 4 -5 -1 3 -10 10
-13 11 -29 2 -80 -24 -137 -4 -139 24 -2 9 42 24 104 34 135 13 42 15 62 8 69
-8 8 -6 11 7 11 12 0 16 5 12 16 -3 9 -6 20 -6 25 0 6 -4 8 -9 4 -5 -3 -12 4
-16 15 -8 25 29 79 39 55 3 -8 10 -15 15 -15 12 0 66 138 58 146 -10 10 -39
-5 -32 -16 3 -6 -3 -24 -15 -40 -13 -18 -19 -38 -16 -48 5 -14 3 -13 -9 2 -16
22 -20 40 -6 32 13 -8 18 22 15 87 -3 50 -1 57 14 55 13 -2 18 7 22 37 6 38
38 111 40 90 9 -101 9 -109 0 -95 -7 11 -9 -1 -9 -40 l1 -55 20 75 c15 59 17
79 8 93 -6 11 -9 22 -6 25 3 3 6 0 6 -6 0 -7 4 -12 9 -12 9 0 22 114 23 197 0
29 4 41 12 36 6 -3 6 0 -1 8 -7 7 -13 22 -13 34 -1 30 -22 53 -54 57 -32 3
-60 37 -38 45 6 3 12 11 12 19 0 8 6 11 15 8 8 -4 15 -1 15 5 0 7 -13 17 -30
22 -22 8 -30 17 -30 34 0 25 -20 38 -40 25 -10 -6 -9 -9 1 -13 11 -3 11 -7 2
-17 -21 -22 -27 15 -9 51 11 22 13 36 6 43 -7 7 -10 5 -11 -5 0 -8 -4 -6 -8 6
-12 29 -5 35 29 25 32 -9 50 4 31 23 -6 6 -11 8 -11 4 0 -4 -9 -3 -21 3 -19
11 -19 13 -5 29 9 10 16 23 16 29 0 15 6 15 31 2 17 -10 19 -7 19 24 0 19 -8
48 -17 64 -17 29 -17 31 0 50 9 10 17 28 17 39 0 11 5 34 11 51 7 21 7 42 0
67 -8 31 -7 36 5 31 10 -4 14 3 14 29 0 28 4 35 20 35 26 0 26 24 0 82 -11 25
-30 49 -44 56 -13 6 -27 20 -31 31 -3 12 -15 21 -26 21 -10 0 -19 5 -19 10 0
6 -6 10 -14 10 -8 0 -16 4 -18 10 -4 14 -69 20 -111 10 -24 -5 -37 -4 -40 3
-2 8 -6 7 -11 -1z m44 -16 c0 -3 -4 -8 -10 -11 -5 -3 -10 -1 -10 4 0 6 5 11
10 11 6 0 10 -2 10 -4z m195 -576 c-3 -5 -10 -10 -16 -10 -5 0 -9 5 -9 10 0 6
7 10 16 10 8 0 12 -4 9 -10z m-125 -185 c0 -5 -5 -3 -10 5 -5 8 -10 20 -10 25
0 6 5 3 10 -5 5 -8 10 -19 10 -25z m-890 -15 c0 -5 -7 -10 -15 -10 -8 0 -15 5
-15 10 0 6 7 10 15 10 8 0 15 -4 15 -10z m380 -440 c0 -5 -2 -10 -4 -10 -3 0
-8 5 -11 10 -3 6 -1 10 4 10 6 0 11 -4 11 -10z m440 -67 c0 -5 -5 -15 -10 -23
-8 -12 -10 -11 -10 8 0 12 5 22 10 22 6 0 10 -3 10 -7z m267 -25 c-3 -8 -6 -5
-6 6 -1 11 2 17 5 13 3 -3 4 -12 1 -19z m-466 -37 c-8 -5 -20 -7 -28 -4 -21 8
-15 13 15 13 20 0 23 -3 13 -9z m-205 -136 c8 -10 14 -13 14 -7 0 14 83 15
115 3 11 -5 25 -5 30 -1 6 4 27 10 48 13 28 4 39 2 44 -9 5 -13 7 -12 17 2 11
15 13 14 26 -1 17 -21 3 -49 -29 -53 -12 -2 -25 -10 -28 -18 -6 -16 -50 -19
-72 -5 -9 6 -19 4 -28 -5 -36 -35 -113 -19 -113 24 -1 16 -2 16 -14 -1 -18
-24 -64 -19 -82 8 -12 18 -11 24 7 47 24 29 45 30 65 3z m-106 -12 c0 -16 -33
-62 -41 -57 -11 7 -28 46 -24 54 4 6 65 9 65 3z m577 -95 c-3 -8 -6 -5 -6 6
-1 11 2 17 5 13 3 -3 4 -12 1 -19z m58 2 c3 -5 1 -10 -4 -10 -6 0 -11 5 -11
10 0 6 2 10 4 10 3 0 8 -4 11 -10z m-405 -20 c0 -5 -4 -10 -10 -10 -5 0 -10 5
-10 10 0 6 5 10 10 10 6 0 10 -4 10 -10z m384 1 c3 -4 -1 -17 -9 -27 -8 -10
-15 -27 -15 -37 0 -21 -20 -13 -20 8 0 41 30 79 44 56z m-118 -286 c-4 -15
-13 -25 -24 -25 -16 1 -16 1 1 14 9 7 17 21 17 31 0 10 3 16 6 12 4 -3 4 -18
0 -32z"/>
<path d="M392 3004 c-7 -8 -8 -14 -3 -14 10 0 25 19 20 25 -2 1 -10 -3 -17
-11z"/>
<path d="M391 2941 c-6 -11 -7 -22 -2 -25 5 -3 11 4 14 16 8 30 1 35 -12 9z"/>
<path d="M478 2942 c-4 -12 0 -23 8 -26 20 -8 25 8 10 29 -12 17 -13 17 -18
-3z"/>
<path d="M517 2901 c-4 -17 -3 -21 5 -13 5 5 8 16 6 23 -3 8 -7 3 -11 -10z"/>
<path d="M490 2855 c0 -5 5 -17 10 -25 5 -8 10 -10 10 -5 0 6 -5 17 -10 25 -5
8 -10 11 -10 5z"/>
<path d="M545 2829 c-4 -6 -5 -12 -2 -15 2 -3 7 2 10 11 7 17 1 20 -8 4z"/>
<path d="M470 2761 c0 -6 5 -13 10 -16 6 -4 7 -12 4 -18 -4 -7 -1 -6 7 2 11
10 11 15 1 18 -6 3 -10 9 -6 14 3 5 0 9 -5 9 -6 0 -11 -4 -11 -9z"/>
<path d="M1718 2603 c7 -3 16 -2 19 1 4 3 -2 6 -13 5 -11 0 -14 -3 -6 -6z"/>
<path d="M2161 2214 c0 -11 3 -14 6 -6 3 7 2 16 -1 19 -3 4 -6 -2 -5 -13z"/>
<path d="M1727 2213 c-4 -3 -7 -11 -7 -17 0 -6 5 -5 12 2 6 6 9 14 7 17 -3 3
-9 2 -12 -2z"/>
<path d="M2488 1903 c7 -3 16 -2 19 1 4 3 -2 6 -13 5 -11 0 -14 -3 -6 -6z"/>
<path d="M2530 1871 c0 -5 7 -11 15 -15 8 -3 15 -1 15 3 0 5 -7 11 -15 15 -8
3 -15 1 -15 -3z"/>
<path d="M2485 1860 c3 -5 11 -10 16 -10 6 0 7 5 4 10 -3 6 -11 10 -16 10 -6
0 -7 -4 -4 -10z"/>
<path d="M2520 1830 c0 -5 5 -10 10 -10 6 0 10 5 10 10 0 6 -4 10 -10 10 -5 0
-10 -4 -10 -10z"/>
<path d="M1605 1780 c-3 -11 -11 -20 -16 -20 -6 0 -7 -4 -4 -10 10 -16 19 -12
37 20 14 24 14 30 3 30 -7 0 -17 -9 -20 -20z"/>
<path d="M3291 1764 c0 -11 3 -14 6 -6 3 7 2 16 -1 19 -3 4 -6 -2 -5 -13z"/>
<path d="M1550 1725 c-14 -16 -10 -18 14 -9 9 3 16 10 16 15 0 14 -16 11 -30
-6z"/>
<path d="M1695 1730 c-3 -5 -1 -10 4 -10 6 0 11 5 11 10 0 6 -2 10 -4 10 -3 0
-8 -4 -11 -10z"/>
<path d="M1651 1656 c-9 -11 -7 -15 9 -19 15 -4 20 0 20 14 0 22 -13 25 -29 5z"/>
<path d="M3281 1644 c0 -11 3 -14 6 -6 3 7 2 16 -1 19 -3 4 -6 -2 -5 -13z"/>
<path d="M1790 1580 c0 -5 5 -10 10 -10 6 0 10 5 10 10 0 6 -4 10 -10 10 -5 0
-10 -4 -10 -10z"/>
<path d="M1253 1540 c13 -33 31 -35 33 -3 1 14 -3 20 -12 16 -8 -3 -14 0 -14
6 0 6 -4 11 -9 11 -5 0 -4 -14 2 -30z"/>
<path d="M3210 1473 c0 -15 29 -49 30 -35 0 7 -7 20 -15 28 -8 9 -15 11 -15 7z"/>
<path d="M1882 1351 c2 -14 9 -26 16 -29 17 -5 15 10 -3 34 -15 18 -15 18 -13
-5z"/>
<path d="M1210 1270 c0 -5 5 -10 10 -10 6 0 10 5 10 10 0 6 -4 10 -10 10 -5 0
-10 -4 -10 -10z"/>
<path d="M2880 1040 c0 -5 5 -10 11 -10 5 0 7 5 4 10 -3 6 -8 10 -11 10 -2 0
-4 -4 -4 -10z"/>
<path d="M2929 1009 c-12 -23 3 -51 15 -30 4 6 5 11 1 11 -3 0 -1 9 5 20 7 13
7 20 1 20 -6 0 -15 -9 -22 -21z"/>
<path d="M776 859 c-12 -12 -16 -24 -11 -36 6 -15 10 -13 22 16 17 40 14 45
-11 20z"/>
<path d="M3333 825 c-8 -22 6 -33 17 -15 13 20 12 30 0 30 -6 0 -13 -7 -17
-15z"/>
<path d="M496 534 c-9 -23 -2 -28 13 -10 7 8 8 17 3 20 -6 3 -13 -1 -16 -10z"/>
<path d="M453 470 c-3 -17 -10 -33 -16 -37 -6 -4 -7 -1 -2 7 5 8 4 11 -3 6 -6
-3 -13 -20 -17 -36 -4 -16 -13 -34 -21 -38 -9 -5 -16 -16 -18 -25 -1 -9 -5
-20 -9 -23 -4 -4 -7 -16 -7 -26 0 -10 -4 -18 -10 -18 -15 0 -70 -61 -64 -71 3
-5 0 -9 -5 -9 -6 0 -11 -4 -11 -9 0 -5 -13 -23 -30 -39 -20 -20 -28 -36 -24
-47 5 -13 2 -16 -17 -13 -15 2 -27 -4 -34 -17 -24 -47 -27 -49 -40 -31 -7 9
-23 19 -36 21 -21 4 -22 3 -7 -8 9 -7 16 -22 15 -33 -2 -18 5 -19 143 -19
l144 0 7 35 c4 19 10 70 12 113 4 53 11 85 22 96 17 20 30 56 50 146 7 33 16
69 20 80 6 16 5 17 -4 5 -9 -13 -11 -13 -11 3 0 29 -20 19 -27 -13z m-223
-405 c-7 -9 -15 -13 -17 -11 -7 7 7 26 19 26 6 0 6 -6 -2 -15z"/>
<path d="M590 384 c0 -6 6 -17 14 -23 11 -9 15 -8 20 5 9 24 7 31 -4 14 -9
-13 -11 -13 -20 0 -5 8 -10 10 -10 4z"/>
<path d="M2053 343 c-22 -8 -14 -23 12 -23 16 0 25 6 25 15 0 15 -14 18 -37 8z"/>
<path d="M242 309 c-25 -11 -46 -28 -49 -39 -3 -13 -14 -20 -29 -20 -13 0 -24
-5 -24 -11 0 -5 -5 -7 -12 -3 -8 5 -9 2 -5 -10 5 -12 3 -16 -5 -13 -7 2 -21
-5 -30 -15 -9 -11 -19 -19 -22 -19 -20 3 -26 -1 -26 -14 0 -8 -4 -15 -10 -15
-5 0 -10 -7 -10 -16 0 -8 -4 -12 -10 -9 -6 4 -9 -12 -9 -42 2 -47 2 -47 9 -13
6 29 8 31 9 10 2 -18 4 -21 9 -10 4 8 18 16 31 18 31 3 31 3 37 38 8 48 15 64
27 64 8 0 8 -3 -1 -12 -14 -14 -16 -68 -3 -68 5 0 7 9 4 20 -3 11 0 20 6 20 6
0 11 7 11 15 0 7 6 18 14 22 14 8 16 11 16 36 0 8 4 7 10 -3 8 -12 10 -12 11
5 l0 20 9 -20 c7 -17 9 -17 9 -3 1 10 16 25 34 34 59 31 92 76 54 73 -7 0 -32
-9 -55 -20z m-165 -205 c-3 -3 -12 -4 -19 -1 -8 3 -5 6 6 6 11 1 17 -2 13 -5z"/>
<path d="M1995 301 c7 -12 64 -25 73 -16 3 3 0 10 -8 15 -19 12 -73 13 -65 1z"/>
<path d="M1966 291 c-4 -5 -2 -12 3 -15 5 -4 12 -2 15 3 4 5 2 12 -3 15 -5 4
-12 2 -15 -3z"/>
<path d="M2080 280 c0 -5 5 -10 11 -10 5 0 7 5 4 10 -3 6 -8 10 -11 10 -2 0
-4 -4 -4 -10z"/>
<path d="M1265 260 c-3 -5 -1 -10 4 -10 6 0 11 5 11 10 0 6 -2 10 -4 10 -3 0
-8 -4 -11 -10z"/>
<path d="M1285 200 c-3 -6 1 -7 9 -4 18 7 21 14 7 14 -6 0 -13 -4 -16 -10z"/>
<path d="M2290 149 c0 -5 5 -7 10 -4 6 3 10 8 10 11 0 2 -4 4 -10 4 -5 0 -10
-5 -10 -11z"/>
<path d="M135 70 c-3 -5 -1 -10 4 -10 6 0 11 5 11 10 0 6 -2 10 -4 10 -3 0 -8
-4 -11 -10z"/>
<path d="M75 29 c-4 -6 -12 -8 -19 -6 -6 3 -16 -1 -23 -8 -8 -9 -5 -12 17 -13
20 0 30 5 33 19 6 21 2 25 -8 8z"/>
</g>
</svg>
